# xmcd
#
# Track frame offsets: 
#        150
#        18402
#        38067
#        65085
#        83188
#        108173
#        131275
#        145829
#        166195
#        181215
#        194724
#
# Disc length: 3056 seconds
#
# Revision: 0
# Processed by: cddbd v1.5.2PL0 Copyright (c) Steve Scherf et al.
# Submitted via: ExactAudioCopy v1.0b3
#
DISCID=900bee0b
DTITLE=Silver Convention - Summernights
DYEAR=1977
DGENRE=Disco
TTITLE0=Summernights
TTITLE1=Wolfchild
TTITLE2=Hotshot
TTITLE3=Voodoo Woman
TTITLE4=Telegram
TTITLE5=Ain't It Like A Hollywood Movie
TTITLE6=Save Me '77
TTITLE7=Blame It On The Music
TTITLE8=Disco Ball
TTITLE9=Telegram (Single Version)
TTITLE10=Hollywood Movie (12" Disco Version)
EXTD=
EXTT0=
EXTT1=
EXTT2=
EXTT3=
EXTT4=
EXTT5=
EXTT6=
EXTT7=
EXTT8=
EXTT9=
EXTT10=
PLAYORDER=
